PathFileType	4	(X/Y/Z)	C:/Users/opensim2020/Desktop/walking_exp_matlab/subject03_walking16_run.trc	
DataRate	CameraRate	NumFrames	NumMarkers	Units	OrigDataRate	OrigDataStartFrame	OrigNumFrames	
100.00	100.00	6	49	mm	100.00	289	131	
Frame#	Time	RKNE			RTOE			RWRB			LTHI			RELB			RFRM			RUPA			RASI			LTIB			RWRA			RTHI			LSHO			LTOE			RTIB			LWRA			CLAV			LASI			RSHO			RFHD			STRN			LHEE			RFIN			RBHD			LFRM			C7			LWRB			LFIN			LUPA			LBHD			LELB			RANK			RHEE			RBAK			LPSI			T10			LFHD			RPSI			LKNE			LANK			*39			*40			*41			*42			*43			*44			*45			*46			*47			*48			
		X1	Y1	Z1	X2	Y2	Z2	X3	Y3	Z3	X4	Y4	Z4	X5	Y5	Z5	X6	Y6	Z6	X7	Y7	Z7	X8	Y8	Z8	X9	Y9	Z9	X10	Y10	Z10	X11	Y11	Z11	X12	Y12	Z12	X13	Y13	Z13	X14	Y14	Z14	X15	Y15	Z15	X16	Y16	Z16	X17	Y17	Z17	X18	Y18	Z18	X19	Y19	Z19	X20	Y20	Z20	X21	Y21	Z21	X22	Y22	Z22	X23	Y23	Z23	X24	Y24	Z24	X25	Y25	Z25	X26	Y26	Z26	X27	Y27	Z27	X28	Y28	Z28	X29	Y29	Z29	X30	Y30	Z30	X31	Y31	Z31	X32	Y32	Z32	X33	Y33	Z33	X34	Y34	Z34	X35	Y35	Z35	X36	Y36	Z36	X37	Y37	Z37	X38	Y38	Z38	X39	Y39	Z39	X40	Y40	Z40	X41	Y41	Z41	X42	Y42	Z42	X43	Y43	Z43	X44	Y44	Z44	X45	Y45	Z45	X46	Y46	Z46	X47	Y47	Z47	X48	Y48	Z48	X49	Y49	Z49	

99	0.980	380.29074	1620.91040	437.42346	359.62140	1285.22876	140.95961	462.69028	1544.54761	871.99268	95.10777	1507.68127	598.16888	511.31863	1404.97522	1041.79346	485.02121	1486.16089	945.26727	487.14633	1413.59424	1139.53162	360.53555	1534.12708	887.18622	160.37534	1452.75122	250.85414	426.02008	1559.66919	909.75507	413.50803	1542.54492	601.93372	77.98800	1505.12634	1335.05664	248.86992	1486.71362	32.97713	393.79129	1462.27856	354.53085	126.66196	1619.67224	958.98431	233.00340	1551.19397	1298.30627	125.25795	1522.38049	892.51184	390.72910	1495.45740	1326.87085	308.45782	1504.63806	1591.58972	230.59419	1589.73499	1128.78064	249.62587	1294.62317	55.18310	447.15369	1613.25635	857.30750	291.16278	1406.87134	1506.87354	23.00119	1572.17493	1007.16736	225.10249	1422.20740	1369.51770	77.28229	1651.25977	954.02179	134.92488	1687.14978	894.95099	-26.38219	1487.84497	1160.85620	161.28181	1424.07007	1508.29333	-45.16494	1492.22449	1054.38696	370.05670	1259.02063	278.56693	321.83179	1204.05945	301.32083	318.17941	1366.94141	1204.46130	183.13542	1364.27881	930.98645	243.89909	1379.79199	1066.29016	177.12970	1527.51880	1594.26648	333.72522	1374.15625	929.58600	144.80823	1550.72351	425.99448	214.39374	1348.09595	75.85339																						214.68918	1420.65808	1617.22083						 
100	0.990	378.08322	1669.45044	450.81522	356.29300	1358.75598	129.13042	464.52710	1556.18848	878.71637	94.93620	1526.36267	597.89404	510.46518	1419.75671	1051.76355	486.17294	1499.08301	953.41870	485.91891	1433.00952	1148.84045	360.26990	1564.96606	891.10089	159.57387	1457.96826	252.40468	429.34497	1573.31311	916.55591	409.99048	1580.28589	609.77887	77.89429	1536.67493	1340.09229	248.87267	1486.34644	32.62608	391.65433	1517.19360	355.05872	137.30510	1664.69958	979.18573	233.93341	1581.92932	1302.39648	123.64089	1553.09692	895.54291	390.56479	1523.06372	1331.62988	307.47266	1535.86389	1596.20776	231.25926	1621.01733	1133.09399	248.82869	1295.40991	61.35888	452.28836	1625.13049	862.72931	290.57663	1438.02820	1511.55322	30.94528	1614.73230	1017.50885	224.31244	1452.75964	1373.34485	88.55243	1695.79199	971.36414	150.67384	1736.10693	921.71967	-24.28573	1523.51733	1163.88684	160.74834	1455.51428	1511.97913	-39.56704	1533.00708	1057.18188	368.36911	1319.90149	263.53857	320.36176	1262.55835	281.68604	316.42108	1396.24902	1209.17578	182.27815	1396.43176	934.35229	242.21780	1410.95166	1069.77747	176.19502	1559.06604	1597.88770	332.35901	1406.43738	933.85944	144.36272	1562.04639	424.52008	213.62622	1349.28552	80.02318																						213.27345	1452.17834	1621.31641						 
101	1.000	375.88522	1715.82776	465.38971	353.83408	1433.40466	118.10012	465.82330	1568.95703	887.91760	94.55432	1545.11182	599.72931	509.11832	1435.41296	1063.31677	486.29147	1512.68787	963.81207	484.38623	1453.45300	1159.30994	360.39728	1596.52002	896.04712	158.91016	1463.12195	255.89299	431.26205	1588.22021	925.72516	406.42319	1617.84851	618.33325	78.30354	1568.44897	1346.01331	248.94417	1486.21057	32.27713	389.22336	1570.87695	356.25372	147.20059	1706.91406	1001.90155	234.92374	1612.51917	1307.50745	122.15061	1584.32312	899.08203	390.11798	1550.72253	1337.67126	306.57068	1567.11743	1601.87903	232.22038	1652.36707	1138.51001	248.17769	1297.45081	69.72166	456.27853	1638.07788	870.90411	290.13959	1469.01147	1517.44543	38.65162	1655.84875	1030.04187	223.24640	1483.63586	1378.32605	99.33492	1738.19592	990.78082	165.15746	1781.93298	951.70721	-22.01827	1558.82153	1168.14941	160.27802	1486.82654	1516.82593	-34.12759	1572.87378	1061.90234	365.60181	1381.78760	247.73454	317.86652	1323.09387	260.40146	315.02692	1425.81226	1214.70520	181.04649	1428.23730	938.73004	240.59956	1442.58521	1074.20801	175.37816	1590.54822	1602.43799	330.95862	1437.67798	939.02179	143.54790	1572.18848	424.34802	213.08041	1351.15149	86.14771																						212.06873	1483.86108	1626.45068						 
102	1.010	373.94003	1759.86792	480.23444	350.24609	1509.44543	107.65998	466.26819	1583.15027	898.71503	93.99073	1564.73938	603.50116	507.20181	1452.09021	1076.12610	485.62616	1527.62646	975.80139	482.59109	1474.89368	1170.60559	359.13718	1627.15601	901.43457	157.57298	1468.99634	261.92532	432.87411	1604.05603	936.29547	403.14499	1654.88135	627.53973	78.95045	1600.22339	1352.85583	248.85196	1486.63892	32.24806	386.77963	1623.11523	357.60504	155.99597	1747.10388	1026.90271	235.93073	1642.90845	1313.47046	120.94690	1616.44250	903.50989	389.61002	1578.33044	1344.58948	305.97272	1598.56775	1608.23804	233.31007	1683.77808	1144.79407	248.00439	1300.71851	80.39115	459.65265	1652.20532	880.81726	289.71844	1499.89600	1524.19287	46.03321	1695.27539	1044.10583	222.10677	1514.24048	1383.92615	109.62596	1778.49121	1011.80548	178.20729	1824.48315	983.59442	-19.40064	1594.41431	1173.58142	159.97189	1517.86157	1522.50232	-28.77845	1611.97485	1067.87024	362.10205	1444.94336	231.15778	313.74576	1385.02332	238.17850	313.34909	1455.11646	1220.51758	179.57475	1460.63757	943.81091	238.96790	1474.18335	1079.34814	174.62793	1621.98145	1607.77515	329.14304	1469.37097	945.28485	141.93120	1582.86108	426.91260	212.85980	1354.20789	94.24856																						210.99815	1515.54675	1632.60938						 
103	1.020	371.85727	1801.02832	494.12598	345.79410	1586.52148	98.14910	466.21146	1598.66602	910.46075	93.29156	1585.95532	608.83148	504.88571	1469.96179	1089.84045	484.59488	1543.81738	988.62378	480.73917	1497.15991	1182.52783	358.14536	1659.17493	908.80402	156.19804	1476.46106	270.23965	433.46500	1620.45972	947.61328	400.55048	1691.54114	637.18298	79.79091	1631.90930	1360.56445	249.03162	1486.94385	31.85658	384.25122	1674.17639	358.43301	163.49345	1785.04297	1053.27637	236.91267	1673.10693	1320.10400	120.07483	1649.20105	908.84894	388.99820	1606.17078	1352.20056	304.94019	1629.60229	1615.07043	234.59641	1715.08362	1151.75562	247.94487	1305.89368	93.18424	462.10962	1667.64539	892.02362	289.53445	1530.85620	1531.61060	52.93667	1733.31299	1059.41992	221.08025	1544.40747	1389.92810	119.38841	1816.62878	1033.82275	189.75256	1864.05237	1016.48077	-15.94210	1630.45288	1179.72412	159.68379	1548.76929	1528.94080	-23.58805	1650.23645	1075.02612	358.13666	1509.57166	214.28639	309.66962	1449.50696	215.81189	311.36572	1484.54980	1226.84912	178.09288	1493.47668	949.64819	237.31718	1505.97620	1084.93213	173.90627	1653.31445	1613.67664	327.34747	1500.78906	951.50378	140.23462	1594.49451	431.32907	212.34111	1359.06506	104.39715																						210.35529	1547.10303	1639.11902						 
104	1.030	369.91312	1839.56189	506.63812	340.85538	1664.01782	89.86304	465.77594	1615.67590	922.84503	92.10253	1609.14685	615.47229	502.13531	1488.84766	1103.86633	483.14682	1561.32227	1001.85968	478.89719	1520.27698	1194.79614	357.37057	1692.26257	917.23895	154.71791	1485.39563	280.14288	433.21313	1638.29138	959.37860	398.61545	1728.01111	646.92859	80.71481	1663.51941	1368.84265	248.99205	1487.65918	31.72652	381.82660	1724.42065	358.15863	169.44202	1820.99146	1080.27405	237.93091	1703.13318	1327.18518	119.63558	1682.64038	915.00934	388.33600	1634.36157	1360.18115	304.11829	1660.76367	1622.27759	235.96477	1745.89880	1159.09595	247.86017	1313.66101	107.40139	463.96835	1684.15955	903.68378	288.94504	1561.46448	1539.25586	59.21487	1769.94958	1075.30713	220.20703	1574.31836	1396.23828	128.22614	1852.93372	1056.60840	199.73346	1900.82922	1049.33594	-12.17412	1666.67676	1186.82227	159.40581	1579.53638	1535.80896	-18.61786	1687.68628	1083.01599	353.94351	1575.56384	197.53195	305.27615	1515.97803	193.40558	308.97504	1513.71448	1233.82373	176.70235	1526.75476	955.56409	235.51086	1537.81860	1090.78357	173.17825	1684.52051	1619.98340	325.56485	1532.80835	957.84381	138.24727	1608.37085	438.08191	212.15955	1365.54712	116.13807																						209.32838	1578.63892	1646.43909						 
